<?xml version="1.0" standalone="no"?>
<!DOCTYPE svg PUBLIC "-//W3C//DTD SVG 20010904//EN"
 "http://www.w3.org/TR/2001/REC-SVG-20010904/DTD/svg10.dtd">
<svg version="1.0" xmlns="http://www.w3.org/2000/svg"
 width="2500.000000pt" height="521.000000pt" viewBox="0 0 2500.000000 521.000000"
 preserveAspectRatio="xMidYMid meet">

<g transform="translate(0.000000,521.000000) scale(0.100000,-0.100000)"
fill="#000000" stroke="none">
<path d="M12286 5199 c-667 -59 -1153 -439 -1419 -1109 -143 -358 -218 -791
-233 -1340 -13 -474 35 -938 137 -1313 229 -845 718 -1314 1469 -1407 124 -15
401 -12 537 5 385 51 682 192 933 445 145 145 229 263 328 460 198 393 293
818 322 1443 12 247 2 571 -25 817 -115 1034 -541 1696 -1236 1918 -247 79
-522 106 -813 81z m336 -1126 c140 -76 225 -279 274 -656 21 -162 31 -1125 15
-1391 -29 -448 -95 -696 -221 -823 -56 -56 -102 -76 -183 -81 -58 -4 -75 0
-122 22 -164 81 -258 338 -295 810 -13 168 -13 1185 0 1352 38 480 153 745
345 795 53 14 131 2 187 -28z"/>
<path d="M24388 5181 c-337 -108 -440 -554 -187 -811 205 -209 544 -175 708
71 151 227 87 544 -140 690 -106 68 -261 88 -381 50z m315 -59 c156 -77 248
-226 248 -402 0 -43 -5 -98 -11 -122 -32 -120 -129 -235 -244 -289 -161 -75
-355 -35 -477 99 -90 99 -123 194 -117 337 3 82 8 101 40 166 56 113 152 200
261 235 27 9 77 13 138 11 85 -2 103 -6 162 -35z"/>
<path d="M24350 4721 l0 -271 35 0 35 0 0 120 0 120 63 0 63 0 80 -117 c75
-112 81 -118 117 -121 20 -2 37 0 37 3 0 4 -36 57 -80 118 l-80 112 48 21 c68
30 92 64 92 131 0 66 -20 107 -63 130 -26 14 -63 18 -189 21 l-158 4 0 -271z
m305 195 c54 -35 55 -110 2 -149 -23 -18 -42 -21 -129 -21 l-103 -1 -3 84 c-2
46 0 91 3 99 8 22 193 12 230 -12z"/>
<path d="M8910 5170 c-182 -26 -339 -71 -486 -139 -529 -248 -840 -810 -794
-1432 25 -332 149 -633 361 -880 36 -42 255 -233 552 -483 289 -243 507 -434
529 -463 163 -216 138 -491 -53 -589 -200 -102 -564 -1 -984 273 -111 73 -353
252 -374 277 -7 9 -17 16 -22 16 -5 0 -9 -316 -9 -727 0 -693 1 -725 18 -710
9 9 38 21 63 26 62 14 136 -6 243 -63 460 -250 1093 -332 1569 -205 393 105
691 352 873 724 235 480 236 967 3 1439 -78 160 -185 293 -428 537 -214 213
-348 332 -591 524 -271 214 -308 246 -353 304 -70 89 -97 153 -97 231 0 170
132 280 337 280 206 0 514 -108 806 -282 67 -40 125 -74 130 -76 4 -2 7 285 7
638 l0 641 -29 -20 c-15 -11 -48 -26 -73 -32 -50 -14 -55 -13 -233 59 -236 96
-425 132 -705 137 -107 2 -224 0 -260 -5z"/>
<path d="M1163 5089 c31 -18 57 -88 57 -156 0 -47 -120 -582 -500 -2220 -275
-1187 -512 -2196 -526 -2243 -35 -115 -86 -212 -141 -271 l-46 -49 794 0 793
0 -32 33 c-58 60 -58 63 -7 403 25 170 48 319 50 332 l5 22 413 0 412 0 44
-314 c49 -352 49 -385 -1 -441 l-30 -35 762 0 c722 0 762 1 755 18 -30 68 -59
159 -84 260 -97 385 -1031 4465 -1031 4503 0 59 16 107 48 142 l26 27 -890 0
c-638 -1 -884 -4 -871 -11z m1007 -2234 c71 -517 132 -952 135 -967 l5 -28
-280 0 c-154 0 -280 1 -280 3 0 10 271 1899 276 1927 4 19 9 28 11 20 1 -8 61
-438 133 -955z"/>
<path d="M4007 5078 c11 -13 29 -39 39 -58 18 -34 19 -113 22 -2370 2 -1741 0
-2345 -9 -2375 -6 -22 -25 -59 -41 -83 l-30 -44 1028 5 c1115 5 1151 7 1384
62 146 35 219 60 339 116 378 177 613 475 697 884 22 105 29 354 14 471 -36
288 -147 523 -329 697 -93 88 -165 139 -286 199 -92 46 -252 102 -325 114 -22
4 -40 10 -40 14 0 3 23 12 51 18 28 7 86 27 129 46 388 168 610 543 610 1031
0 364 -124 670 -360 888 -211 195 -491 315 -887 379 -134 21 -164 22 -1083 25
l-945 4 22 -23z m1663 -999 c230 -36 379 -222 380 -474 0 -198 -105 -371 -276
-452 -75 -35 -84 -37 -201 -41 l-123 -4 0 484 c0 267 3 488 7 491 10 10 140 8
213 -4z m90 -1863 c189 -53 316 -181 361 -366 7 -30 13 -102 12 -160 -1 -166
-50 -290 -154 -391 -97 -95 -228 -139 -411 -139 l-118 0 0 533 c0 294 3 537 8
542 11 12 241 -2 302 -19z"/>
<path d="M14543 5070 c62 -73 58 116 55 -2466 l-3 -2351 -32 -51 -32 -52 1244
0 1245 0 0 598 c0 591 0 597 -19 568 -11 -16 -34 -38 -53 -50 -32 -20 -45 -21
-490 -24 l-458 -3 0 1858 c1 2009 -2 1894 54 1968 l27 35 -781 0 -782 0 25
-30z"/>
<path d="M17073 5048 l32 -51 5 -1816 c6 -1989 3 -1875 65 -2109 134 -502 507
-850 1056 -986 535 -132 1122 -87 1556 120 466 222 748 634 802 1173 7 68 11
699 11 1845 0 1731 1 1741 21 1786 11 25 30 55 41 68 l21 22 -776 0 -776 0 29
-44 c16 -24 34 -65 40 -92 7 -33 10 -600 7 -1769 -2 -1556 -4 -1725 -19 -1772
-56 -180 -155 -271 -304 -281 -94 -6 -158 15 -224 74 -61 56 -115 162 -130
254 -6 42 -10 670 -10 1780 0 1705 1 1715 21 1760 11 25 30 55 41 68 l21 22
-781 0 -781 0 32 -52z"/>
<path d="M20800 4499 l0 -602 25 27 c50 54 65 56 440 56 l345 0 -2 -1863 -3
-1864 -32 -51 -32 -52 769 0 c424 0 770 2 770 5 0 2 -11 21 -25 41 -14 20 -29
53 -35 73 -6 23 -10 669 -10 1874 l0 1837 335 0 c365 0 378 -2 429 -56 l26
-29 0 603 0 602 -1500 0 -1500 0 0 -601z"/>
<path d="M24125 1599 c-292 -45 -525 -240 -620 -520 -150 -440 110 -919 557
-1024 80 -19 243 -19 333 0 104 22 257 101 338 176 172 157 259 355 260 589 0
144 -18 220 -85 360 -45 93 -61 115 -147 200 -82 82 -110 103 -191 143 -52 25
-124 53 -160 61 -87 20 -212 27 -285 15z"/>
</g>
</svg>
