<?xml version="1.0" standalone="no"?>
<!DOCTYPE svg PUBLIC "-//W3C//DTD SVG 20010904//EN"
 "http://www.w3.org/TR/2001/REC-SVG-20010904/DTD/svg10.dtd">
<svg version="1.0" xmlns="http://www.w3.org/2000/svg"
 width="873.000000pt" height="537.000000pt" viewBox="0 0 873.000000 537.000000"
 preserveAspectRatio="xMidYMid meet">

<g transform="translate(0.000000,537.000000) scale(0.100000,-0.100000)"
fill="#000000" stroke="none">
<path d="M4280 5138 c0 -7 -12 -64 -26 -125 l-27 -113 -99 0 c-54 0 -98 -3
-97 -7 0 -5 34 -32 75 -61 40 -29 74 -58 74 -63 0 -5 -37 -82 -81 -171 l-81
-162 98 91 c55 50 116 109 138 131 l38 40 72 -52 c39 -29 76 -56 83 -59 7 -4
-1 31 -18 80 -16 48 -29 92 -29 98 0 7 39 39 88 71 l87 59 -111 3 -111 3 -28
124 c-16 69 -32 125 -37 125 -4 0 -8 -6 -8 -12z"/>
<path d="M3923 4215 c-404 -244 -733 -657 -880 -1106 -23 -68 -44 -139 -48
-157 l-7 -33 68 3 68 3 9 35 c52 201 108 352 193 521 153 302 383 580 594 717
32 20 67 42 77 49 10 6 14 12 8 12 -5 0 -43 -20 -82 -44z"/>
<path d="M2843 2273 c-107 -219 -198 -402 -200 -406 -3 -4 21 -7 52 -5 l57 3
58 145 58 145 165 3 165 2 42 -97 c23 -54 53 -122 65 -150 l24 -53 75 0 c42 0
76 4 76 9 0 5 -51 114 -113 242 -62 129 -149 307 -192 397 -116 239 -89 258
-332 -235z m260 82 l67 -135 -136 0 c-75 0 -134 4 -132 9 13 35 124 260 128
261 3 0 36 -61 73 -135z"/>
<path d="M6370 2661 c-239 -33 -381 -168 -397 -376 -20 -260 176 -438 482
-438 50 0 115 5 145 12 142 34 259 121 316 236 27 55 29 69 29 170 0 92 -4
118 -22 158 -47 102 -169 196 -293 225 -64 15 -195 22 -260 13z m216 -67 c96
-26 170 -100 200 -200 8 -26 14 -86 14 -134 0 -122 -27 -198 -95 -266 -67 -67
-137 -94 -245 -94 -146 0 -243 57 -302 178 -31 63 -33 72 -33 177 0 100 3 116
29 173 72 156 237 220 432 166z"/>
<path d="M840 2644 c-176 -47 -284 -157 -310 -318 -28 -174 57 -347 205 -420
148 -72 373 -75 534 -6 l51 22 0 50 0 50 -50 -37 c-132 -97 -336 -103 -458
-15 -98 71 -136 162 -130 313 3 86 8 110 31 154 58 113 141 164 278 171 110 6
196 -20 261 -78 l44 -38 17 48 c22 63 22 64 -15 78 -122 43 -345 56 -458 26z"/>
<path d="M1635 2260 l0 -400 67 0 68 0 0 195 0 195 246 0 247 0 -5 -195 -6
-195 69 0 69 0 0 308 c0 170 3 350 7 401 l6 92 -73 -3 -74 -3 3 -167 3 -168
-247 0 -246 0 2 168 2 167 -69 3 -69 3 0 -401z"/>
<path d="M3750 2378 c0 -156 -3 -336 -7 -400 l-6 -118 53 0 53 0 -7 108 c-3
59 -9 192 -12 297 l-7 189 64 -58 c35 -32 132 -119 214 -194 83 -74 196 -181
253 -236 57 -56 114 -104 127 -108 14 -3 25 -6 25 -5 0 1 2 137 4 302 2 165 7
346 11 403 l8 102 -51 0 -52 0 7 -297 6 -297 -29 23 c-35 27 -536 495 -578
540 -17 17 -40 31 -53 31 l-23 0 0 -282z"/>
<path d="M4870 2321 c0 -186 -3 -366 -7 -401 l-6 -62 234 5 c171 3 249 9 288
20 133 39 228 116 279 225 38 83 43 222 11 306 -42 112 -158 203 -289 225 -30
6 -157 12 -282 15 l-228 5 0 -338z m422 268 c171 -37 254 -146 253 -335 -1
-82 -4 -98 -33 -157 -37 -74 -73 -109 -152 -146 -50 -23 -69 -26 -207 -29
l-153 -4 0 334 c0 184 3 338 7 341 11 11 228 8 285 -4z"/>
<path d="M7280 2350 c1 -170 -2 -350 -6 -400 l-7 -90 53 0 53 0 -7 178 c-3 97
-9 231 -13 296 l-6 120 35 -30 c82 -69 353 -319 473 -436 83 -80 139 -128 155
-130 l25 -3 1 205 c0 113 4 294 8 403 l8 197 -52 0 -51 0 5 -167 c4 -93 9
-225 12 -295 3 -71 1 -128 -3 -128 -11 0 -301 268 -496 456 -102 99 -144 134
-162 134 l-25 0 0 -310z"/>
<path d="M2986 1653 c21 -88 83 -263 128 -358 160 -338 403 -613 739 -836 111
-73 342 -199 366 -199 7 0 11 35 11 98 l0 98 -87 49 c-485 268 -838 663 -978
1093 l-27 82 -79 0 -79 0 6 -27z"/>
</g>
</svg>
