<?xml version="1.0" standalone="no"?>
<!DOCTYPE svg PUBLIC "-//W3C//DTD SVG 20010904//EN"
 "http://www.w3.org/TR/2001/REC-SVG-20010904/DTD/svg10.dtd">
<svg version="1.0" xmlns="http://www.w3.org/2000/svg"
 width="400.000000pt" height="400.000000pt" viewBox="0 0 400.000000 400.000000"
 preserveAspectRatio="xMidYMid meet">

<g transform="translate(0.000000,400.000000) scale(0.100000,-0.100000)"
fill="#000000" stroke="none">
<path d="M1117 2349 l-67 -40 15 -30 16 -29 47 26 c26 15 51 31 56 35 5 5 37
-7 71 -27 l62 -34 18 26 c9 14 14 28 12 31 -14 13 -141 83 -151 83 -6 -1 -41
-19 -79 -41z"/>
<path d="M521 2209 c-68 -13 -127 -47 -174 -99 -52 -58 -67 -103 -67 -202 0
-128 57 -215 178 -271 40 -19 65 -22 172 -22 117 0 129 2 188 29 63 29 147
107 139 130 -2 6 -21 14 -42 18 -32 7 -41 5 -49 -9 -75 -134 -374 -137 -460
-5 -73 112 -50 254 51 321 109 72 299 57 377 -29 32 -36 37 -38 71 -30 20 5
39 11 42 14 3 3 -11 26 -31 50 -76 93 -238 136 -395 105z"/>
<path d="M2478 2209 c-156 -23 -262 -129 -275 -277 -12 -126 56 -243 170 -293
77 -34 231 -39 325 -10 133 40 206 138 206 276 0 122 -68 227 -177 275 -37 17
-156 42 -182 39 -5 -1 -35 -5 -67 -10z m218 -97 c114 -59 156 -188 100 -308
-39 -83 -117 -124 -236 -124 -174 0 -274 83 -274 230 0 130 76 210 219 229 66
9 142 -2 191 -27z"/>
<path d="M3281 2210 c-70 -15 -127 -48 -174 -100 -52 -58 -67 -103 -67 -202 0
-128 57 -215 178 -271 40 -19 65 -22 172 -22 117 0 129 2 188 29 63 29 147
107 139 130 -2 6 -21 14 -42 18 -32 7 -41 5 -49 -9 -75 -134 -374 -137 -460
-5 -74 113 -49 257 56 325 105 68 296 51 372 -33 32 -36 37 -38 71 -30 20 5
39 11 42 14 10 9 -46 75 -85 101 -20 13 -57 31 -82 40 -54 20 -198 28 -259 15z"/>
<path d="M1204 1910 c0 -162 2 -229 3 -147 2 81 2 213 0 295 -1 81 -3 14 -3
-148z"/>
<path d="M1450 1910 l0 -290 40 0 40 0 0 115 0 115 143 0 142 -1 95 -114 95
-114 53 0 c28 -1 52 2 52 5 0 3 -45 56 -100 119 -55 63 -100 116 -100 119 0 3
5 6 12 6 6 0 32 10 56 21 111 54 106 229 -8 287 -42 21 -55 22 -282 22 l-238
0 0 -290z m491 191 c34 -34 40 -92 13 -130 -31 -43 -70 -51 -254 -51 l-170 0
0 105 0 105 191 0 191 0 29 -29z"/>
</g>
</svg>
