<?xml version="1.0" standalone="no"?>
<!DOCTYPE svg PUBLIC "-//W3C//DTD SVG 20010904//EN"
 "http://www.w3.org/TR/2001/REC-SVG-20010904/DTD/svg10.dtd">
<svg version="1.0" xmlns="http://www.w3.org/2000/svg"
 width="3840.000000pt" height="2160.000000pt" viewBox="0 0 3840.000000 2160.000000"
 preserveAspectRatio="xMidYMid meet">

<g transform="translate(0.000000,2160.000000) scale(0.100000,-0.100000)"
fill="#000000" stroke="none">
<path d="M3885 15059 c-322 -20 -594 -95 -890 -244 -163 -82 -294 -159 -320
-189 -5 -6 -41 -36 -80 -67 -81 -65 -335 -307 -335 -320 0 -5 -26 -43 -58 -86
-57 -76 -131 -182 -201 -285 -40 -61 -151 -270 -151 -286 0 -6 -24 -62 -54
-124 -30 -62 -75 -165 -101 -228 -25 -63 -52 -128 -60 -145 -29 -66 -147 -446
-176 -569 -17 -72 -37 -158 -45 -191 -58 -237 -113 -536 -149 -810 -33 -253
-33 -247 -40 -350 -4 -49 -8 -101 -10 -113 -26 -170 -26 -1205 0 -1337 2 -11
6 -56 10 -100 20 -284 95 -727 167 -990 16 -60 34 -132 38 -160 34 -206 234
-705 442 -1100 44 -84 295 -445 337 -485 9 -8 34 -37 56 -65 81 -100 365 -365
393 -365 6 0 12 -4 14 -9 6 -17 252 -171 360 -227 169 -86 408 -167 543 -184
39 -5 122 -16 185 -25 63 -9 136 -17 163 -18 26 0 47 -4 47 -9 0 -4 68 -8 150
-8 83 0 150 4 150 8 0 5 21 9 48 10 26 0 99 8 162 17 63 9 144 20 180 25 77 9
272 68 385 115 221 92 488 272 740 501 213 193 257 224 315 224 39 0 38 10 -5
38 -37 26 -115 121 -115 141 0 6 -9 30 -20 52 -11 21 -33 83 -48 137 l-27 97
0 1610 0 1610 22 82 c12 45 33 106 47 136 14 29 26 59 26 65 0 6 26 38 58 70
60 61 147 112 193 112 18 0 28 6 32 20 3 11 2 21 -1 21 -4 1 -468 2 -1031 3
-841 1 -1027 -1 -1038 -12 -19 -19 -7 -32 30 -32 50 0 156 -59 217 -120 66
-66 109 -144 147 -265 l28 -90 3 -1630 3 -1631 -23 -21 c-41 -39 -139 -92
-217 -117 -242 -81 -514 -46 -750 96 -34 21 -66 38 -70 38 -10 0 -157 150
-207 210 -86 105 -264 401 -264 442 0 8 -18 59 -40 114 -121 296 -208 677
-284 1244 -72 533 -72 1687 0 2300 69 588 152 961 311 1395 73 196 223 436
361 575 151 152 265 226 432 283 105 36 176 48 315 52 184 6 476 -40 571 -90
16 -8 33 -15 37 -15 32 0 335 -172 362 -205 5 -7 44 -37 85 -67 69 -50 95 -76
185 -179 51 -57 135 -171 135 -183 0 -6 15 -30 33 -53 17 -22 40 -55 49 -73
12 -20 24 -30 35 -28 17 3 18 58 21 971 2 1045 5 990 -49 949 -84 -64 -172
-88 -287 -78 -98 9 -176 25 -422 86 -445 111 -749 148 -1055 129z"/>
<path d="M33550 14773 c-108 -25 -159 -53 -236 -128 -64 -63 -73 -78 -99 -155
-41 -118 -41 -220 -1 -345 26 -80 35 -96 85 -145 41 -40 76 -63 129 -84 49
-20 72 -34 72 -46 0 -71 -118 -312 -180 -370 -32 -29 -150 -167 -150 -175 0
-17 177 4 260 30 100 32 143 53 225 109 33 23 72 47 87 55 48 24 170 144 229
223 71 95 163 280 183 368 33 139 10 287 -66 433 -67 127 -148 194 -270 224
-88 21 -191 23 -268 6z"/>
<path d="M9028 13880 c-109 -13 -157 -20 -170 -25 -7 -2 -24 -6 -38 -9 -190
-33 -469 -150 -648 -272 -40 -27 -83 -54 -95 -61 -12 -7 -26 -18 -32 -25 -5
-7 -49 -48 -97 -91 -49 -44 -122 -120 -164 -170 -42 -51 -90 -108 -106 -127
-17 -19 -36 -46 -41 -60 -6 -14 -28 -50 -49 -81 -103 -155 -220 -387 -294
-584 -19 -49 -39 -99 -44 -110 -18 -38 -32 -80 -45 -135 -7 -30 -33 -125 -58
-210 -55 -187 -127 -535 -161 -772 -95 -660 -103 -1482 -20 -2158 36 -292 123
-758 163 -870 5 -14 26 -83 46 -155 43 -155 63 -220 81 -260 7 -16 36 -88 64
-160 56 -142 139 -305 235 -460 34 -56 69 -116 79 -135 9 -20 26 -46 39 -60
12 -14 44 -52 71 -85 80 -100 336 -355 356 -355 5 0 35 -18 68 -40 102 -67
285 -166 368 -198 109 -41 306 -89 444 -106 160 -21 466 -14 620 13 186 33
423 109 510 165 19 13 69 42 110 66 41 24 93 56 114 72 21 15 43 28 48 28 30
0 217 185 364 360 83 98 184 241 184 260 0 6 10 27 23 48 77 123 199 375 273
565 43 109 114 331 114 356 0 10 13 69 29 132 62 239 135 635 165 889 40 341
56 768 44 1207 -12 452 -48 784 -129 1188 -42 206 -84 388 -93 403 -3 5 -10
38 -15 73 -26 161 -183 563 -314 804 -38 72 -83 155 -98 185 -49 98 -210 300
-352 443 -154 155 -373 301 -574 381 -106 42 -308 101 -395 115 -35 6 -79 13
-98 16 -59 10 -411 13 -482 5z m369 -1061 c35 -6 63 -15 63 -21 0 -5 4 -6 10
-3 13 8 151 -57 213 -101 74 -53 142 -120 192 -189 62 -87 167 -296 197 -395
35 -111 61 -201 63 -220 1 -8 7 -27 13 -41 10 -25 57 -255 86 -419 23 -135 51
-387 62 -560 3 -58 8 -116 10 -130 2 -14 9 -186 15 -384 9 -272 9 -445 0 -720
-6 -198 -13 -377 -15 -396 -3 -19 -7 -80 -11 -135 -3 -55 -8 -113 -10 -130 -3
-16 -7 -57 -10 -90 -27 -285 -87 -610 -155 -845 -54 -187 -75 -242 -127 -345
-77 -153 -135 -237 -228 -331 -66 -67 -96 -89 -175 -127 -116 -56 -223 -80
-350 -80 -156 1 -241 26 -408 116 -58 32 -159 134 -226 227 -56 78 -156 262
-156 286 0 8 -16 60 -34 117 -132 390 -198 767 -238 1357 -17 250 -17 1224 0
1470 41 590 98 922 234 1355 42 135 113 288 181 389 43 64 174 206 190 206 5
0 32 16 60 36 107 77 227 112 391 113 55 1 128 -4 163 -10z"/>
<path d="M24930 13887 c-3 -2 -39 -7 -80 -10 -41 -4 -84 -8 -95 -11 -11 -2
-40 -7 -65 -11 -48 -7 -202 -52 -315 -91 -190 -67 -468 -238 -603 -373 -152
-150 -358 -417 -430 -556 -163 -318 -283 -616 -371 -930 -27 -93 -53 -199 -59
-235 -6 -36 -25 -139 -41 -230 -89 -488 -121 -868 -121 -1445 0 -589 33 -965
130 -1505 12 -63 28 -153 37 -200 16 -89 84 -335 126 -455 117 -334 312 -735
446 -915 149 -200 376 -437 451 -470 14 -6 66 -37 115 -70 294 -195 626 -288
1025 -288 225 0 404 26 600 84 201 61 455 203 638 356 131 110 299 308 417
494 107 167 295 541 295 587 0 8 13 46 30 85 60 141 155 481 209 747 118 580
158 1038 148 1690 -7 463 -22 658 -78 1020 -57 369 -163 811 -254 1060 -20 55
-47 132 -60 170 -61 183 -253 537 -387 715 -158 210 -284 334 -487 478 -45 33
-249 137 -346 179 -97 41 -284 91 -398 108 -27 3 -59 9 -70 11 -29 7 -401 16
-407 11z m380 -1086 c36 -13 68 -28 72 -34 4 -7 8 -9 8 -5 0 4 21 -6 48 -22
26 -16 70 -42 98 -59 83 -48 228 -227 260 -321 7 -21 26 -64 43 -96 23 -47
104 -264 115 -309 1 -5 12 -41 24 -80 31 -103 47 -179 81 -385 39 -228 39
-229 46 -315 3 -38 8 -79 10 -90 2 -11 7 -63 10 -115 4 -52 8 -105 10 -117 27
-173 27 -1526 0 -1718 -2 -16 -7 -66 -10 -110 -27 -377 -96 -756 -190 -1041
-35 -106 -79 -224 -99 -263 -20 -40 -36 -78 -36 -84 0 -7 -26 -53 -58 -102
-162 -250 -384 -376 -662 -377 -143 0 -237 23 -368 89 -78 40 -104 60 -161
123 -134 149 -209 271 -279 452 -49 128 -121 376 -129 443 -2 28 -15 102 -28
165 -42 206 -73 463 -97 805 -18 247 -17 1265 0 1525 56 814 191 1383 404
1701 45 68 177 219 190 219 4 0 27 14 52 30 63 43 150 81 231 102 102 26 324
20 415 -11z"/>
<path d="M35420 13847 c-3 -3 -25 -7 -50 -10 -116 -15 -281 -68 -403 -129
-138 -69 -313 -213 -413 -341 -60 -76 -195 -348 -229 -461 -92 -305 -95 -647
-8 -931 24 -80 172 -383 225 -464 27 -40 75 -101 107 -135 66 -69 224 -250
260 -296 13 -17 47 -49 75 -70 28 -21 116 -103 196 -181 80 -78 186 -179 235
-224 111 -102 251 -245 341 -350 38 -44 75 -86 82 -94 28 -29 131 -190 164
-256 47 -93 84 -204 98 -290 24 -148 10 -329 -34 -453 -53 -149 -173 -287
-311 -359 -112 -57 -166 -68 -325 -67 -220 1 -420 54 -588 154 -46 28 -87 50
-92 50 -16 0 -155 118 -220 187 -36 38 -96 113 -135 166 -43 60 -76 96 -85 95
-13 -3 -15 -91 -18 -721 -2 -803 -6 -764 66 -695 93 90 185 119 346 111 80 -3
148 -16 335 -65 295 -75 355 -85 511 -82 230 4 427 48 644 143 128 56 226 114
291 171 32 27 187 189 243 253 75 86 187 287 211 382 6 22 24 89 40 149 60
219 83 446 61 601 -6 44 -14 96 -16 115 -11 73 -46 238 -65 301 -10 36 -19 74
-19 84 0 42 -175 403 -219 452 -18 20 -170 226 -186 252 -34 55 -512 551 -532
551 -29 0 -546 507 -627 614 -62 84 -73 103 -119 216 -69 168 -74 330 -17 485
71 195 161 281 341 326 72 19 102 21 204 16 71 -4 154 -15 205 -28 86 -22 248
-97 330 -152 66 -45 186 -163 232 -229 25 -35 48 -58 59 -58 18 0 19 22 19
605 0 333 -2 605 -4 605 -2 0 -24 -9 -50 -21 -106 -47 -177 -44 -446 16 -85
19 -173 37 -195 40 -22 4 -51 9 -65 11 -32 7 -444 16 -450 11z"/>
<path d="M12080 13717 c0 -20 7 -26 32 -31 45 -9 143 -75 205 -138 103 -105
161 -238 183 -418 8 -70 10 -904 8 -3215 l-3 -3120 -23 -83 c-22 -84 -58 -164
-95 -214 -51 -69 -209 -168 -269 -168 -24 0 -28 -4 -28 -27 l0 -28 1012 0
c983 0 1013 1 1016 19 4 21 -13 36 -44 36 -36 0 -137 58 -189 108 -41 39 -58
66 -83 133 -72 187 -66 43 -69 1597 l-3 1402 38 0 c66 0 154 -21 212 -50 94
-48 161 -135 215 -280 19 -52 35 -102 35 -110 0 -14 48 -148 70 -195 26 -57
52 -123 99 -250 29 -77 58 -153 65 -170 8 -16 42 -106 76 -200 34 -93 73 -194
86 -223 13 -29 24 -59 24 -66 0 -8 27 -85 61 -172 33 -88 94 -249 135 -359 41
-110 81 -214 89 -230 31 -68 117 -293 125 -330 8 -36 105 -298 208 -560 l40
-100 758 0 759 0 3 25 c2 21 -3 28 -32 38 -57 21 -207 125 -258 180 -26 28
-66 79 -88 114 -53 81 -141 264 -170 353 -21 63 -166 429 -329 830 -34 82 -61
156 -61 165 0 8 -52 143 -116 300 -174 430 -264 658 -287 725 -21 63 -91 241
-189 485 -32 80 -65 162 -73 183 l-15 38 67 30 c38 17 86 39 108 49 96 44 481
370 508 430 4 8 38 58 76 109 160 219 301 536 331 746 5 33 18 121 30 195 40
260 35 553 -15 830 -8 47 -15 99 -15 116 0 39 -50 221 -95 344 -46 127 -149
320 -236 444 -90 127 -262 298 -399 399 -159 115 -411 232 -604 277 -231 55
-169 53 -1578 57 l-1308 4 0 -24z m2255 -991 c73 -15 124 -28 225 -58 59 -17
187 -107 256 -181 102 -108 186 -247 226 -372 10 -31 18 -80 44 -255 30 -209
16 -495 -37 -730 -24 -103 -154 -316 -246 -401 -63 -56 -150 -116 -198 -135
-217 -86 -269 -95 -607 -101 l-268 -6 0 1133 0 1132 263 -5 c187 -3 285 -9
342 -21z"/>
<path d="M17272 13718 c2 -16 18 -27 68 -44 60 -22 190 -101 190 -115 0 -4 19
-26 43 -51 76 -80 136 -219 157 -366 8 -55 10 -986 8 -3252 -3 -3015 -4 -3179
-22 -3249 -31 -132 -54 -178 -116 -242 -31 -32 -70 -63 -84 -69 -20 -7 -27
-16 -24 -33 l3 -22 870 0 c479 1 931 4 1005 8 293 14 664 91 945 194 146 54
406 210 569 340 121 97 366 359 366 391 0 6 17 32 37 59 108 139 307 556 367
763 46 163 58 209 96 359 46 188 101 472 124 641 79 575 81 1390 5 1995 -42
341 -100 621 -227 1100 -29 112 -185 477 -236 555 -21 32 -119 195 -157 261
-49 86 -231 277 -364 382 -102 81 -247 175 -284 184 -22 6 -60 21 -186 78 -85
38 -341 100 -515 125 -181 25 -413 30 -1498 30 l-1143 0 3 -22z m2188 -998
c36 -5 76 -11 90 -13 14 -3 54 -10 90 -17 89 -17 140 -35 243 -87 144 -74 328
-271 426 -454 149 -281 266 -744 311 -1234 6 -66 13 -140 15 -165 26 -249 26
-1292 1 -1450 -2 -14 -7 -63 -11 -110 -24 -329 -84 -670 -160 -916 -19 -62
-35 -120 -35 -131 0 -10 -4 -23 -8 -28 -5 -6 -19 -37 -32 -70 -85 -218 -177
-352 -347 -500 -101 -89 -268 -173 -397 -200 -10 -3 -33 -9 -50 -15 -56 -18
-218 -30 -423 -30 l-203 0 0 2715 0 2716 213 -2 c116 -1 241 -5 277 -9z"/>
<path d="M27907 13733 c-10 -22 3 -36 56 -58 77 -31 121 -61 184 -126 69 -69
109 -148 130 -250 16 -78 18 -301 21 -3229 3 -3092 2 -3196 -27 -3390 -10 -65
-63 -179 -100 -215 -82 -79 -131 -110 -202 -128 -46 -12 -54 -18 -54 -38 l0
-24 910 0 910 0 3 28 c3 24 0 27 -25 27 -45 0 -129 45 -187 100 -59 56 -102
133 -138 250 l-23 75 -5 2137 c-3 1175 -2 2134 1 2130 7 -7 65 -165 159 -432
64 -181 234 -638 349 -938 28 -72 51 -139 51 -147 0 -8 11 -45 26 -82 14 -37
58 -158 99 -268 40 -110 85 -229 100 -265 15 -36 48 -123 75 -195 27 -71 65
-172 85 -224 19 -51 35 -101 35 -111 0 -18 34 -110 215 -580 42 -109 142 -384
175 -480 12 -36 42 -119 65 -185 75 -210 89 -273 89 -425 1 -105 -3 -146 -17
-186 -19 -54 -104 -158 -137 -169 -13 -4 -20 -15 -20 -31 l0 -24 870 0 870 0
0 23 c0 17 -9 26 -36 36 -20 7 -67 42 -105 79 -80 75 -124 155 -161 292 l-23
85 -3 3195 c-2 2371 0 3214 8 3270 31 200 156 373 306 425 26 9 40 20 42 34
l3 21 -861 0 -861 0 3 -21 c2 -15 17 -27 45 -38 102 -39 194 -137 238 -255 56
-150 54 -61 55 -2085 0 -1026 -2 -1863 -4 -1860 -2 2 -27 67 -54 144 -64 176
-117 316 -176 470 -65 165 -116 311 -116 329 0 15 -110 316 -202 551 -28 72
-70 184 -93 250 -24 66 -59 160 -79 209 -20 49 -36 97 -36 107 0 9 -23 77 -51
151 -134 347 -353 949 -480 1318 -91 264 -84 457 21 603 16 23 43 51 60 62 18
12 30 29 30 43 l0 22 -1004 0 c-553 0 -1007 -3 -1009 -7z"/>
<path d="M34297 7283 c-9 -8 -9 -976 -1 -997 10 -25 32 -19 49 13 30 58 118
109 240 137 75 18 139 19 1060 19 931 0 984 -1 1055 -19 41 -11 95 -27 118
-38 48 -20 106 -74 117 -108 4 -12 12 -19 18 -17 9 3 13 136 15 510 2 438 0
507 -12 507 -8 0 -21 -12 -28 -27 -18 -38 -97 -89 -175 -113 -156 -48 -240
-51 -1181 -47 -770 3 -887 6 -962 21 -102 20 -199 65 -235 109 -14 18 -30 38
-36 45 -11 13 -32 16 -42 5z"/>
</g>
</svg>
