<?xml version="1.0" standalone="no"?>
<!DOCTYPE svg PUBLIC "-//W3C//DTD SVG 20010904//EN"
 "http://www.w3.org/TR/2001/REC-SVG-20010904/DTD/svg10.dtd">
<svg version="1.0" xmlns="http://www.w3.org/2000/svg"
 width="600.000000pt" height="84.000000pt" viewBox="0 0 600.000000 84.000000"
 preserveAspectRatio="xMidYMid meet">

<g transform="translate(0.000000,84.000000) scale(0.100000,-0.100000)"
fill="#000000" stroke="none">
<path d="M3162 805 c4 -21 2 -24 -16 -19 -18 4 -22 0 -24 -20 -2 -27 12 -36
21 -13 3 7 6 4 6 -6 1 -17 2 -17 17 -2 12 12 19 13 30 4 12 -10 11 -16 -3 -40
-9 -15 -20 -26 -25 -23 -4 3 -8 0 -8 -5 0 -23 26 -10 38 19 8 17 21 30 30 30
13 0 14 2 4 9 -11 7 -12 12 -1 29 11 18 10 24 -5 41 -11 12 -30 21 -44 21 -21
0 -24 -4 -20 -25z"/>
<path d="M3253 726 c3 -8 1 -17 -6 -20 -9 -3 -8 -7 3 -15 8 -6 15 -14 15 -18
1 -19 31 -53 47 -53 26 0 22 17 -18 71 -36 49 -51 62 -41 35z"/>
<path d="M3110 697 c0 -10 -8 -17 -20 -17 -20 0 -26 -11 -12 -24 4 -4 7 -11 7
-14 0 -4 6 -22 14 -40 14 -33 49 -51 72 -36 8 5 9 3 4 -5 -5 -9 -2 -12 11 -9
12 2 20 13 21 28 2 22 2 23 -6 5 l-9 -20 -7 20 c-19 56 -40 96 -56 111 -18 16
-19 16 -19 1z m35 -57 c10 -11 16 -20 13 -20 -3 0 -13 9 -23 20 -10 11 -16 20
-13 20 3 0 13 -9 23 -20z"/>
<path d="M3208 638 c3 -18 7 -28 9 -22 2 6 18 8 36 6 l32 -5 -28 27 c-39 36
-55 34 -49 -6z"/>
<path d="M3040 627 c-1 -25 45 -90 73 -103 l32 -15 -32 5 c-18 3 -33 1 -33 -4
0 -15 -59 -42 -73 -33 -8 4 -7 1 2 -10 12 -15 11 -17 -5 -17 -38 -1 -84 -56
-84 -101 0 -19 4 -17 31 17 19 24 48 45 76 56 25 9 54 26 65 38 17 18 48 26
85 21 8 -1 10 5 7 14 -7 17 0 19 26 5 14 -7 19 -5 23 10 6 25 0 30 -39 30 -49
0 -84 17 -120 58 -18 20 -33 33 -34 29z"/>
<path d="M123 604 l27 -15 0 -210 c0 -218 -3 -239 -44 -271 -29 -24 -44 -22
-48 5 -2 16 -10 22 -28 22 -30 0 -38 -26 -15 -49 41 -41 123 -2 167 79 27 49
28 52 28 237 0 182 1 187 22 202 21 15 18 16 -57 16 -77 -1 -79 -1 -52 -16z"/>
<path d="M3536 602 c11 -11 44 -95 79 -205 53 -164 63 -187 81 -187 19 0 26
16 59 132 50 177 61 207 69 187 4 -8 28 -83 54 -165 44 -137 50 -149 71 -149
21 0 26 8 41 60 57 202 94 312 107 328 15 16 13 17 -33 17 -44 -1 -47 -2 -31
-14 17 -13 16 -21 -25 -160 -24 -80 -45 -146 -48 -146 -3 0 -24 64 -47 143
-38 130 -40 143 -26 160 15 16 12 17 -53 17 -61 -1 -67 -2 -51 -14 18 -14 16
-21 -26 -163 -25 -81 -48 -141 -51 -133 -3 8 -23 73 -45 145 -35 118 -37 132
-23 148 14 16 11 17 -53 17 -67 0 -68 -1 -49 -18z"/>
<path d="M467 536 c-73 -27 -117 -90 -117 -166 0 -93 81 -170 180 -170 75 0
129 35 161 105 24 52 24 89 -2 143 -39 79 -138 119 -222 88z m120 -32 c34 -22
54 -70 54 -127 0 -64 -10 -94 -46 -129 -51 -51 -133 -30 -170 42 -20 39 -19
127 3 170 31 63 100 82 159 44z"/>
<path d="M3270 539 c0 -5 5 -7 10 -4 6 3 10 8 10 11 0 2 -4 4 -10 4 -5 0 -10
-5 -10 -11z"/>
<path d="M813 522 c26 -28 25 -279 0 -298 -16 -12 -9 -13 46 -14 61 0 63 1 48
18 -12 13 -17 37 -17 80 l0 62 85 0 85 0 0 -66 c0 -52 -4 -70 -17 -80 -16 -12
-9 -13 46 -14 61 0 63 1 48 18 -25 27 -25 267 0 294 15 17 13 18 -47 18 -60 0
-62 -1 -47 -18 12 -13 17 -37 17 -75 l0 -57 -85 0 -85 0 0 57 c0 38 5 62 17
75 15 17 13 18 -47 18 -60 0 -62 -1 -47 -18z"/>
<path d="M1278 517 c20 -21 22 -34 22 -147 0 -101 -3 -127 -17 -142 -15 -17
-14 -18 37 -18 51 0 52 0 31 18 -20 16 -22 25 -19 126 l3 108 100 -126 c71
-90 106 -126 121 -126 21 0 21 4 20 145 -1 133 1 145 19 159 19 14 17 15 -29
16 -47 0 -48 -1 -33 -18 14 -15 17 -40 17 -121 l0 -103 -102 126 -102 126 -45
0 -44 0 21 -23z"/>
<path d="M1733 519 c27 -21 27 -21 27 -142 0 -110 -2 -123 -22 -144 l-21 -23
57 0 c58 0 58 0 36 18 -20 16 -23 29 -27 132 -4 112 -4 114 14 93 10 -11 58
-71 108 -132 60 -74 96 -111 110 -111 19 0 20 5 17 141 -3 122 -1 143 14 160
17 18 16 19 -26 19 -41 0 -42 -1 -27 -18 13 -15 17 -39 17 -115 0 -53 -3 -97
-7 -96 -5 0 -51 54 -103 119 l-95 119 -50 0 -50 0 28 -20z"/>
<path d="M2198 517 c20 -21 22 -34 22 -149 0 -119 -1 -126 -22 -141 -22 -15
-20 -16 47 -16 66 -1 68 0 47 15 -21 14 -22 22 -22 146 0 108 3 135 17 150 15
17 13 18 -47 18 l-63 0 21 -23z"/>
<path d="M2433 522 c14 -15 17 -42 17 -147 0 -105 -3 -132 -17 -147 -16 -17
-11 -18 115 -18 l132 0 0 38 c0 37 -1 37 -18 15 -17 -21 -56 -29 -124 -25 -27
2 -28 3 -28 67 l0 65 49 0 c40 0 53 -4 65 -22 15 -22 16 -20 16 32 0 52 -1 54
-16 32 -12 -18 -25 -22 -63 -22 -54 0 -61 9 -61 83 l0 37 67 0 c48 0 72 -5 85
-17 17 -15 18 -14 18 15 l0 32 -127 0 c-122 0 -126 -1 -110 -18z"/>
<path d="M4261 518 c-5 -13 -30 -79 -56 -147 -26 -69 -57 -133 -69 -143 -21
-17 -20 -17 38 -18 l58 0 -23 19 c-22 17 -22 20 -8 57 l15 39 65 3 65 3 15
-43 c15 -41 15 -43 -5 -60 -20 -17 -19 -17 47 -18 l68 0 -21 28 c-11 15 -43
83 -71 152 -28 69 -53 131 -56 138 -9 21 -53 14 -62 -10z m69 -159 c0 -5 -22
-9 -50 -9 -27 0 -50 3 -50 8 0 8 39 112 47 126 5 8 53 -105 53 -125z"/>
<path d="M4913 522 c14 -15 17 -42 17 -150 0 -124 -1 -132 -22 -146 -21 -15
-19 -16 47 -16 67 0 69 1 50 18 -17 15 -19 26 -15 81 l5 64 63 -68 c37 -39 61
-73 58 -81 -4 -11 7 -14 50 -14 l56 0 -86 94 -87 94 52 49 c28 26 62 54 75 61
34 18 30 22 -20 22 -37 0 -43 -3 -39 -18 3 -12 -16 -35 -61 -75 l-66 -58 0 62
c0 44 5 68 17 81 15 17 13 18 -47 18 -60 0 -62 -1 -47 -18z"/>
<path d="M5333 522 c14 -15 17 -42 17 -147 0 -105 -3 -132 -17 -147 -16 -17
-11 -18 115 -18 l132 0 0 38 c0 37 -1 37 -18 15 -17 -21 -56 -29 -124 -25 -27
2 -28 3 -28 67 l0 65 49 0 c40 0 53 -4 65 -22 15 -22 16 -21 16 26 0 48 -1 49
-19 32 -14 -12 -32 -16 -67 -14 l-49 3 0 55 0 55 69 3 c56 2 70 0 82 -15 12
-16 13 -15 14 15 l0 32 -127 0 c-122 0 -126 -1 -110 -18z"/>
<path d="M4583 516 c15 -11 17 -31 17 -144 0 -124 -1 -132 -22 -146 -21 -15
-13 -16 105 -16 l127 0 -1 38 c0 36 0 37 -16 15 -13 -20 -24 -23 -79 -23 l-64
0 0 131 c0 114 2 134 18 145 15 12 9 13 -43 13 -52 0 -58 -1 -42 -13z"/>
<path d="M5713 519 c15 -9 17 -27 17 -144 0 -127 -1 -135 -22 -149 -21 -15
-19 -16 47 -16 66 0 68 1 47 16 -18 12 -22 25 -22 70 0 53 1 54 29 54 25 0 35
-9 72 -70 42 -67 45 -70 82 -70 l38 0 -31 40 c-16 22 -44 58 -60 80 -27 35
-29 40 -12 40 11 0 31 9 46 21 38 30 36 79 -5 113 -29 24 -37 26 -137 26 -78
-1 -102 -3 -89 -11z m179 -26 c44 -40 9 -111 -60 -120 l-42 -6 0 72 0 71 42 0
c24 0 49 -7 60 -17z"/>
<path d="M3266 503 c-6 -14 -5 -15 5 -6 7 7 10 15 7 18 -3 3 -9 -2 -12 -12z"/>
<path d="M3200 410 c-22 -44 -38 -80 -35 -80 3 0 23 36 45 80 22 44 38 80 35
80 -3 0 -23 -36 -45 -80z"/>
<path d="M2998 389 c-10 -5 -18 -14 -18 -19 0 -17 15 -11 28 10 14 23 13 23
-10 9z"/>
<path d="M3046 250 c-24 -27 -46 -42 -65 -43 -21 -1 -27 -6 -23 -17 5 -13 3
-13 -10 -2 -14 11 -18 10 -27 -7 -17 -30 -12 -39 5 -11 10 17 13 18 9 5 -4
-11 -10 -28 -13 -38 -4 -15 -7 -16 -13 -5 -6 9 -9 4 -9 -14 0 -16 -4 -28 -10
-28 -16 0 -12 -27 5 -34 8 -3 15 -9 14 -13 -4 -21 3 -31 23 -36 30 -8 42 2 25
21 -27 32 -26 60 3 106 20 30 25 46 17 50 -7 2 0 5 14 5 17 1 35 13 55 39 58
72 58 86 0 22z"/>
<path d="M3231 225 c0 -12 -6 -26 -13 -33 -6 -6 -9 -14 -6 -18 10 -9 30 35 25
54 -4 13 -5 13 -6 -3z"/>
<path d="M3242 184 c-7 -14 -6 -29 4 -54 14 -34 10 -31 -24 17 -10 15 -10 14
-1 -7 7 -14 20 -36 29 -50 10 -14 25 -38 34 -53 16 -27 19 -27 35 -13 10 9 22
16 28 16 17 0 45 37 34 45 -6 3 -11 1 -11 -4 0 -13 -40 -14 -60 -1 -8 5 -24
35 -36 66 -19 51 -23 55 -32 38z"/>
</g>
</svg>
