<svg width="48" height="48" viewBox="0 0 48 48" fill="none" xmlns="http://www.w3.org/2000/svg">
  <path d="M39.1928 14.8321C39.1928 21.9799 33.3836 27.7891 26.2358 27.7891C19.088 27.7891 13.2788 21.9799 13.2788 14.8321C13.2788 7.68437 19.088 1.87512 26.2358 1.87512C33.3836 1.87512 39.1928 7.68437 39.1928 14.8321Z" fill="white"/>
  <path d="M34.7212 33.1679C34.7212 40.3156 28.912 46.1249 21.7642 46.1249C14.6164 46.1249 8.80713 40.3156 8.80713 33.1679C8.80713 26.0201 14.6164 20.2109 21.7642 20.2109C28.912 20.2109 34.7212 26.0201 34.7212 33.1679Z" fill="white"/>
  <path d="M26.2358 27.7891C33.3836 27.7891 39.1928 21.9799 39.1928 14.8321C39.1928 7.68437 33.3836 1.87512 26.2358 1.87512" fill="white"/>
  <path d="M21.7642 20.2109C28.912 20.2109 34.7212 26.0201 34.7212 33.1679C34.7212 40.3156 28.912 46.1249 21.7642 46.1249" fill="white"/>
  <path d="M26.2358 27.7891C19.088 27.7891 13.2788 21.9799 13.2788 14.8321C13.2788 7.68437 19.088 1.87512 26.2358 1.87512" fill="white"/>
  <path d="M21.7642 20.2109C14.6164 20.2109 8.80713 26.0201 8.80713 33.1679C8.80713 40.3156 14.6164 46.1249 21.7642 46.1249" fill="white"/>
</svg> 